REM DIRINDEX 1\2,1\3,1\4,1\5
REM DIRNAME folder01,folder02,folder03,folder04,folder05
TITLE ""
FILE "P1Q_j_1691-1704.mp3" MP3
  TRACK 01 AUDIO
    TITLE "3:cjc005_0422"
    INDEX 01 00:00:00
  TRACK 02 AUDIO
    TITLE "0:"
    INDEX 01 00:01:34
  TRACK 03 AUDIO
    TITLE "4:cjc005_0423"
    INDEX 01 00:01:68
  TRACK 04 AUDIO
    TITLE "0:"
    INDEX 01 00:03:06
  TRACK 05 AUDIO
    TITLE "5:cjc005_0424"
    INDEX 01 00:03:31
  TRACK 06 AUDIO
    TITLE "0:"
    INDEX 01 00:07:35
  TRACK 07 AUDIO
    TITLE "3:cjc005_0425"
    INDEX 01 00:08:15
  TRACK 08 AUDIO
    TITLE "0:"
    INDEX 01 00:09:28
  TRACK 09 AUDIO
    TITLE "4:cjc005_0426"
    INDEX 01 00:09:53
  TRACK 10 AUDIO
    TITLE "0:"
    INDEX 01 00:11:29
  TRACK 11 AUDIO
    TITLE "5:cjc005_0427"
    INDEX 01 00:11:48
  TRACK 12 AUDIO
    TITLE "0:"
    INDEX 01 00:15:17
  TRACK 13 AUDIO
    TITLE "3:cjc005_0428"
    INDEX 01 00:15:74
  TRACK 14 AUDIO
    TITLE "0:"
    INDEX 01 00:17:25
  TRACK 15 AUDIO
    TITLE "4:cjc005_0429"
    INDEX 01 00:17:59
  TRACK 16 AUDIO
    TITLE "0:"
    INDEX 01 00:19:36
  TRACK 17 AUDIO
    TITLE "5:cjc005_0430"
    INDEX 01 00:19:62
  TRACK 18 AUDIO
    TITLE "0:"
    INDEX 01 00:23:55
  TRACK 19 AUDIO
    TITLE "3:cjc005_0431"
    INDEX 01 00:24:33
  TRACK 20 AUDIO
    TITLE "0:"
    INDEX 01 00:25:68
  TRACK 21 AUDIO
    TITLE "4:cjc005_0432"
    INDEX 01 00:26:32
  TRACK 22 AUDIO
    TITLE "0:"
    INDEX 01 00:28:04
  TRACK 23 AUDIO
    TITLE "5:cjc005_0433"
    INDEX 01 00:28:23
  TRACK 24 AUDIO
    TITLE "0:"
    INDEX 01 00:31:63
  TRACK 25 AUDIO
    TITLE "3:cjc005_0434"
    INDEX 01 00:32:45
  TRACK 26 AUDIO
    TITLE "0:"
    INDEX 01 00:34:06
  TRACK 27 AUDIO
    TITLE "4:cjc005_0435"
    INDEX 01 00:34:36
  TRACK 28 AUDIO
    TITLE "0:"
    INDEX 01 00:35:64
  TRACK 29 AUDIO
    TITLE "5:cjc005_0436"
    INDEX 01 00:36:13
  TRACK 30 AUDIO
    TITLE "0:"
    INDEX 01 00:40:28
  TRACK 31 AUDIO
    TITLE "3:cjc005_0437"
    INDEX 01 00:41:06
  TRACK 32 AUDIO
    TITLE "0:"
    INDEX 01 00:42:23
  TRACK 33 AUDIO
    TITLE "4:cjc005_0438"
    INDEX 01 00:42:51
  TRACK 34 AUDIO
    TITLE "0:"
    INDEX 01 00:43:56
  TRACK 35 AUDIO
    TITLE "5:cjc005_0439"
    INDEX 01 00:44:12
  TRACK 36 AUDIO
    TITLE "0:"
    INDEX 01 00:48:40
  TRACK 37 AUDIO
    TITLE "3:cjc005_0440"
    INDEX 01 00:49:21
  TRACK 38 AUDIO
    TITLE "0:"
    INDEX 01 00:50:60
  TRACK 39 AUDIO
    TITLE "4:cjc005_0441"
    INDEX 01 00:51:15
  TRACK 40 AUDIO
    TITLE "0:"
    INDEX 01 00:52:45
  TRACK 41 AUDIO
    TITLE "5:cjc005_0442"
    INDEX 01 00:53:04
  TRACK 42 AUDIO
    TITLE "0:"
    INDEX 01 00:56:65
  TRACK 43 AUDIO
    TITLE "3:cjc005_0443"
    INDEX 01 00:57:45
  TRACK 44 AUDIO
    TITLE "0:"
    INDEX 01 00:58:66
  TRACK 45 AUDIO
    TITLE "4:cjc005_0444"
    INDEX 01 00:59:18
  TRACK 46 AUDIO
    TITLE "0:"
    INDEX 01 01:00:45
  TRACK 47 AUDIO
    TITLE "5:cjc005_0445"
    INDEX 01 01:00:68
  TRACK 48 AUDIO
    TITLE "0:"
    INDEX 01 01:06:16
  TRACK 49 AUDIO
    TITLE "3:cjc005_0446"
    INDEX 01 01:06:69
  TRACK 50 AUDIO
    TITLE "0:"
    INDEX 01 01:08:21
  TRACK 51 AUDIO
    TITLE "4:cjc005_0447"
    INDEX 01 01:08:54
  TRACK 52 AUDIO
    TITLE "0:"
    INDEX 01 01:10:00
  TRACK 53 AUDIO
    TITLE "5:cjc005_0448"
    INDEX 01 01:10:24
  TRACK 54 AUDIO
    TITLE "0:"
    INDEX 01 01:13:32
  TRACK 55 AUDIO
    TITLE "3:cjc005_0449"
    INDEX 01 01:14:10
  TRACK 56 AUDIO
    TITLE "0:"
    INDEX 01 01:15:27
  TRACK 57 AUDIO
    TITLE "4:cjc005_0450"
    INDEX 01 01:15:58
  TRACK 58 AUDIO
    TITLE "0:"
    INDEX 01 01:17:33
  TRACK 59 AUDIO
    TITLE "5:cjc005_0451"
    INDEX 01 01:17:59
  TRACK 60 AUDIO
    TITLE "0:"
    INDEX 01 01:21:41
  TRACK 61 AUDIO
    TITLE "3:cjc005_0452"
    INDEX 01 01:22:21
  TRACK 62 AUDIO
    TITLE "0:"
    INDEX 01 01:23:38
  TRACK 63 AUDIO
    TITLE "4:cjc005_0453"
    INDEX 01 01:23:73
  TRACK 64 AUDIO
    TITLE "0:"
    INDEX 01 01:26:03
  TRACK 65 AUDIO
    TITLE "5:cjc005_0454"
    INDEX 01 01:26:25
  TRACK 66 AUDIO
    TITLE "0:"
    INDEX 01 01:30:32
  TRACK 67 AUDIO
    TITLE "3:cjc005_0455"
    INDEX 01 01:30:56
  TRACK 68 AUDIO
    TITLE "0:"
    INDEX 01 01:31:71
  TRACK 69 AUDIO
    TITLE "4:cjc005_0456"
    INDEX 01 01:32:25
  TRACK 70 AUDIO
    TITLE "0:"
    INDEX 01 01:34:01
  TRACK 71 AUDIO
    TITLE "5:cjc005_0457"
    INDEX 01 01:34:26
  TRACK 72 AUDIO
    TITLE "0:"
    INDEX 01 01:39:51
  TRACK 73 AUDIO
    TITLE "3:cjc005_0458"
    INDEX 01 01:40:29
  TRACK 74 AUDIO
    TITLE "0:"
    INDEX 01 01:41:38
  TRACK 75 AUDIO
    TITLE "4:cjc005_0459"
    INDEX 01 01:41:67
  TRACK 76 AUDIO
    TITLE "0:"
    INDEX 01 01:43:02
  TRACK 77 AUDIO
    TITLE "5:cjc005_0460"
    INDEX 01 01:43:33
  TRACK 78 AUDIO
    TITLE "0:"
    INDEX 01 01:47:23
  TRACK 79 AUDIO
    TITLE "3:cjc005_0461"
    INDEX 01 01:47:74
  TRACK 80 AUDIO
    TITLE "0:"
    INDEX 01 01:49:08
  TRACK 81 AUDIO
    TITLE "4:cjc005_0462"
    INDEX 01 01:49:51
  TRACK 82 AUDIO
    TITLE "0:"
    INDEX 01 01:50:49
  TRACK 83 AUDIO
    TITLE "5:cjc005_0463"
    INDEX 01 01:51:05
  TRACK 84 AUDIO
    TITLE "0:"
    INDEX 01 01:53:31
